<svg width="1600" height="1000" viewBox="0 0 1600 1000" fill="none" xmlns="http://www.w3.org/2000/svg">
  <rect width="1600" height="1000" rx="40" fill="#080D12"/>
  <rect x="54" y="54" width="1492" height="892" rx="34" fill="url(#bg)"/>
  <rect x="240" y="146" width="310" height="708" rx="46" fill="rgba(255,255,255,0.05)" stroke="rgba(255,255,255,0.08)" stroke-width="10"/>
  <rect x="302" y="216" width="186" height="472" rx="26" fill="rgba(0,209,255,0.12)" stroke="rgba(0,209,255,0.25)" stroke-width="8"/>
  <rect x="300" y="724" width="190" height="64" rx="20" fill="rgba(255,255,255,0.04)"/>
  <rect x="674" y="194" width="714" height="154" rx="30" fill="rgba(255,255,255,0.04)" stroke="rgba(255,255,255,0.06)"/>
  <rect x="674" y="390" width="340" height="214" rx="30" fill="rgba(255,255,255,0.04)" stroke="rgba(255,255,255,0.06)"/>
  <rect x="1048" y="390" width="340" height="214" rx="30" fill="rgba(0,209,255,0.09)" stroke="rgba(0,209,255,0.22)"/>
  <rect x="674" y="638" width="714" height="154" rx="30" fill="rgba(255,255,255,0.04)" stroke="rgba(255,255,255,0.06)"/>
  <path d="M760 270H1288" stroke="#00D1FF" stroke-width="12" stroke-linecap="round"/>
  <path d="M746 490C812 438 896 438 962 490" stroke="#00D1FF" stroke-width="14" stroke-linecap="round"/>
  <circle cx="1218" cy="498" r="54" stroke="#00D1FF" stroke-width="14"/>
  <defs>
    <linearGradient id="bg" x1="70" y1="70" x2="1490" y2="930" gradientUnits="userSpaceOnUse">
      <stop stop-color="#0A1218"/>
      <stop offset="1" stop-color="#09202E"/>
    </linearGradient>
  </defs>
</svg>
